<?xml version="1.0" standalone="no"?>
<!DOCTYPE svg PUBLIC "-//W3C//DTD SVG 20010904//EN"
 "http://www.w3.org/TR/2001/REC-SVG-20010904/DTD/svg10.dtd">
<svg version="1.0" xmlns="http://www.w3.org/2000/svg"
 width="1600.000000pt" height="1600.000000pt" viewBox="0 0 1600.000000 1600.000000"
 preserveAspectRatio="xMidYMid meet">
<metadata>
Created by potrace 1.11, written by Peter Selinger 2001-2013
</metadata>
<g transform="translate(0.000000,1600.000000) scale(0.100000,-0.100000)"
fill="#000000" stroke="none">
<path d="M13815 12423 c-71 -52 -213 -149 -315 -217 -639 -423 -1119 -638
-1630 -727 -148 -26 -478 -36 -643 -20 -64 6 -215 29 -335 51 -308 56 -421 70
-637 77 -547 17 -916 -97 -1619 -501 -281 -161 -389 -217 -546 -279 -233 -93
-412 -123 -670 -114 -186 7 -258 18 -638 103 -357 79 -519 102 -717 104 -650
4 -1268 -236 -2205 -855 l-245 -162 -233 -1159 c-128 -637 -398 -1985 -600
-2996 l-368 -1836 56 44 c616 496 1189 790 1775 913 215 45 320 56 555 55 282
-1 403 -16 765 -100 612 -140 874 -144 1235 -19 190 67 375 159 740 368 324
187 614 312 867 376 353 88 721 88 1208 1 400 -72 546 -85 790 -69 642 42
1257 308 2164 938 l178 124 21 101 c21 101 429 2125 923 4585 143 712 258
1297 257 1301 -2 4 -61 -35 -133 -87z m-6601 -4073 c14 -151 29 -295 32 -319
l6 -43 45 6 c81 11 314 95 445 160 70 35 124 57 120 50 -10 -17 -402 -460
-496 -559 -62 -66 -75 -86 -76 -113 0 -18 9 -155 20 -304 12 -149 19 -273 16
-275 -8 -8 -115 45 -185 91 -37 25 -105 79 -151 120 l-84 74 -55 -40 c-72 -52
-381 -256 -445 -293 -27 -16 -47 -24 -45 -18 2 6 69 153 148 328 102 223 142
321 135 331 -5 7 -68 98 -140 201 -180 259 -197 284 -191 289 2 2 51 -5 108
-15 141 -27 257 -41 358 -44 l85 -2 28 55 c15 30 87 177 160 327 73 150 133
271 134 270 1 -1 14 -126 28 -277z"/>
</g>
</svg>
